<svg width="60" height="60" viewBox="0 0 60 60" fill="none" xmlns="http://www.w3.org/2000/svg">
<rect width="60" height="60" rx="30" fill="#F8F0D6"/>
<path d="M23.9805 25.968C24.3925 25.968 24.7264 25.634 24.7264 25.222C24.7264 24.8101 24.3925 24.4761 23.9805 24.4761C23.5685 24.4761 23.2345 24.8101 23.2345 25.222C23.2345 25.634 23.5685 25.968 23.9805 25.968Z" fill="#424153"/>
<path d="M18.8273 13.8451L19.4401 15.5681C19.4663 15.6419 19.5182 15.7004 19.5838 15.7299L21.1146 16.4196C21.3309 16.5171 21.3309 16.8617 21.1146 16.959L19.5838 17.6487C19.5182 17.6783 19.4663 17.7368 19.4401 17.8105L18.8273 19.5334C18.7408 19.7769 18.4346 19.7769 18.348 19.5334L17.7353 17.8105C17.709 17.7367 17.6571 17.6782 17.5916 17.6487L16.0608 16.959C15.8445 16.8616 15.8445 16.517 16.0608 16.4196L17.5916 15.7299C17.6571 15.7004 17.7091 15.6419 17.7353 15.5681L18.348 13.8451C18.4346 13.6018 18.7407 13.6018 18.8273 13.8451Z" fill="#424153"/>
<path d="M37.8347 12.4396L38.2892 13.7177C38.3086 13.7724 38.3471 13.8158 38.3957 13.8377L39.5313 14.3493C39.6917 14.4216 39.6917 14.6772 39.5313 14.7495L38.3957 15.2611C38.3471 15.283 38.3086 15.3263 38.2892 15.3811L37.8347 16.6592C37.7705 16.8398 37.5434 16.8398 37.4792 16.6592L37.0246 15.3811C37.0052 15.3264 36.9667 15.283 36.9181 15.2611L35.7825 14.7495C35.6221 14.6772 35.6221 14.4216 35.7825 14.3493L36.9181 13.8377C36.9667 13.8158 37.0052 13.7724 37.0246 13.7177L37.4792 12.4396C37.5434 12.2591 37.7704 12.2591 37.8347 12.4396Z" fill="#424153"/>
<path d="M28.2327 19.3828C28.9716 19.3828 29.5707 18.7838 29.5707 18.0448C29.5707 17.3058 28.9716 16.7068 28.2327 16.7068C27.4937 16.7068 26.8947 17.3058 26.8947 18.0448C26.8947 18.7838 27.4937 19.3828 28.2327 19.3828Z" fill="#424153"/>
<path d="M40.9328 19.8917C41.2516 19.8917 41.51 19.6333 41.51 19.3145C41.51 18.9957 41.2516 18.7373 40.9328 18.7373C40.614 18.7373 40.3556 18.9957 40.3556 19.3145C40.3556 19.6333 40.614 19.8917 40.9328 19.8917Z" fill="#424153"/>
<path d="M46.4302 41.4868L43.6472 32.2156C43.3593 31.2566 42.6235 30.5417 41.7058 30.2678C41.7766 29.9839 41.8148 29.6874 41.8148 29.3818C41.8148 27.3543 40.1653 25.7048 38.1377 25.7048C37.9925 25.7048 37.848 25.7133 37.7047 25.7303C37.709 25.6579 37.7112 25.5854 37.7112 25.5128C37.7112 23.4853 36.0617 21.8357 34.0342 21.8357C32.6418 21.8357 31.4153 22.5981 30.7907 23.7746C30.336 23.5801 29.8431 23.4772 29.3444 23.4772C28.7371 23.4772 28.1418 23.6301 27.6131 23.9122C27.0134 22.6747 25.7436 21.8357 24.3028 21.8357C22.2752 21.8357 20.6257 23.4853 20.6257 25.5128C20.6257 25.5808 20.6276 25.6487 20.6314 25.7165C19.2346 26.2523 18.2809 27.5973 18.2809 29.1474C18.2809 29.5238 18.3382 29.887 18.4439 30.2292C17.4536 30.4733 16.634 31.2322 16.3411 32.2395L13.6534 41.4791C12.1702 41.6004 11.0001 42.8455 11.0001 44.3595V44.8048C11.0001 46.3989 12.297 47.6958 13.8912 47.6958H46.109C47.703 47.6958 49 46.3989 49 44.8048V44.3595C48.9999 42.874 47.8736 41.6471 46.4302 41.4868ZM21.5915 26.9934C21.7979 26.9586 21.9803 26.8386 22.094 26.6627C22.2076 26.4868 22.2422 26.2713 22.1891 26.0687C22.1416 25.8877 22.1176 25.7007 22.1176 25.5128C22.1176 24.3078 23.0979 23.3276 24.3028 23.3276C25.4023 23.3276 26.334 24.1491 26.4701 25.2385C26.5059 25.5252 26.7041 25.7656 26.9788 25.8552C27.2535 25.9449 27.5553 25.8678 27.7534 25.6573C28.1713 25.2135 28.7362 24.969 29.3443 24.969C29.8458 24.969 30.3177 25.1348 30.709 25.4483C30.9097 25.6092 31.1792 25.6553 31.422 25.5702C31.6647 25.4852 31.8467 25.2811 31.9032 25.0301C32.1255 24.0436 33.0217 23.3276 34.0342 23.3276C35.2391 23.3276 36.2194 24.3078 36.2194 25.5128C36.2194 25.8678 36.1364 26.2069 35.9728 26.5208C35.8184 26.8169 35.8795 27.1794 36.1225 27.4085C36.3654 27.6374 36.731 27.6772 37.0175 27.5056C37.355 27.3034 37.7425 27.1966 38.1378 27.1966C39.3427 27.1966 40.3229 28.1768 40.3229 29.3818C40.3229 29.6504 40.2734 29.9075 40.1843 30.1453H20.0151C19.8605 29.8459 19.7727 29.5068 19.7727 29.1472C19.7727 28.0769 20.5376 27.1711 21.5915 26.9934ZM17.7735 32.6561C17.948 32.0562 18.5062 31.6373 19.1309 31.6373H40.8643C41.4933 31.6373 42.0375 32.0421 42.2183 32.6445L44.867 41.4685H15.2102L17.7735 32.6561ZM47.508 44.8048C47.508 45.5763 46.8804 46.2039 46.1089 46.2039H13.8912C13.1197 46.2039 12.4921 45.5763 12.4921 44.8048V44.3595C12.4921 43.588 13.1197 42.9604 13.8912 42.9604H46.109C46.8804 42.9604 47.5081 43.588 47.5081 44.3595L47.508 44.8048Z" fill="#424153"/>
<path d="M33.7802 39.9819C32.7276 39.9819 31.8516 39.2109 31.6871 38.2041H28.3117C28.1472 39.2109 27.2712 39.9819 26.2186 39.9819C25.0492 39.9819 24.0978 39.0305 24.0978 37.8611C24.0978 37.3889 24.2533 36.9379 24.5347 36.5713C24.2533 36.2047 24.0978 35.7538 24.0978 35.2815C24.0978 34.112 25.0492 33.1606 26.2186 33.1606C27.2712 33.1606 28.1472 33.9316 28.3117 34.9385H31.6871C31.8515 33.9316 32.7275 33.1606 33.7802 33.1606C34.9496 33.1606 35.9009 34.112 35.9009 35.2815C35.9009 35.7538 35.7454 36.2047 35.464 36.5713C35.7454 36.938 35.9009 37.3889 35.9009 37.8611C35.901 39.0305 34.9496 39.9819 33.7802 39.9819ZM27.8883 37.3089H32.1105C32.2339 37.3089 32.3519 37.3599 32.4364 37.4498C32.521 37.5397 32.5648 37.6606 32.5572 37.7838C32.5556 37.8094 32.5544 37.8351 32.5544 37.8611C32.5544 38.537 33.1043 39.0868 33.7801 39.0868C34.4559 39.0868 35.0057 38.537 35.0057 37.8611C35.0057 37.4946 34.8435 37.1503 34.5606 36.9162C34.4578 36.8311 34.3984 36.7047 34.3984 36.5713C34.3984 36.4379 34.4579 36.3114 34.5606 36.2264C34.8435 35.9924 35.0057 35.6479 35.0057 35.2814C35.0057 34.6056 34.4559 34.0558 33.7801 34.0558C33.1043 34.0558 32.5544 34.6056 32.5544 35.2814C32.5544 35.3074 32.5556 35.3332 32.5572 35.3587C32.5648 35.4819 32.521 35.6028 32.4364 35.6927C32.3519 35.7826 32.2339 35.8335 32.1105 35.8335H27.8883C27.7648 35.8335 27.6467 35.7825 27.5621 35.6925C27.4775 35.6024 27.4339 35.4815 27.4416 35.3582C27.4432 35.3328 27.4443 35.3072 27.4443 35.2814C27.4443 34.6055 26.8945 34.0557 26.2186 34.0557C25.5428 34.0557 24.993 34.6055 24.993 35.2814C24.993 35.6479 25.1552 35.9923 25.438 36.2263C25.5408 36.3114 25.6003 36.4378 25.6003 36.5712C25.6003 36.7046 25.5408 36.831 25.438 36.9161C25.1552 37.1501 24.993 37.4945 24.993 37.861C24.993 38.5369 25.5428 39.0867 26.2186 39.0867C26.8945 39.0867 27.4443 38.5369 27.4443 37.861C27.4443 37.8352 27.4432 37.8096 27.4416 37.7842C27.4339 37.661 27.4775 37.54 27.5621 37.4499C27.6468 37.36 27.7648 37.3089 27.8883 37.3089Z" fill="#424153" stroke="#424153" stroke-width="0.25"/>
<path d="M30.5455 28.571C30.2983 28.571 30.0978 28.3706 30.0978 28.1234V27.2208C30.0978 26.9737 30.2982 26.7732 30.5455 26.7732C30.7926 26.7732 30.9931 26.9736 30.9931 27.2208V28.1234C30.993 28.3705 30.7926 28.571 30.5455 28.571Z" fill="#424153"/>
<path d="M33.8637 29.2767C33.6165 29.2767 33.4161 29.0763 33.4161 28.8292V27.9266C33.4161 27.6795 33.6165 27.479 33.8637 27.479C34.1108 27.479 34.3113 27.6794 34.3113 27.9266V28.8292C34.3113 29.0763 34.1108 29.2767 33.8637 29.2767Z" fill="#424153"/>
</svg>
