<svg width="60" height="60" viewBox="0 0 60 60" fill="none" xmlns="http://www.w3.org/2000/svg">
<rect width="60" height="60" rx="30" fill="#C8F2E7"/>
<path d="M26.8112 29.6717C26.5698 30.0896 26.5058 30.5765 26.6307 31.0426L27.0391 32.5666C27.164 33.0327 27.4629 33.4223 27.8809 33.6636C28.1593 33.8243 28.4681 33.9064 28.7812 33.9064C28.9382 33.9064 29.0962 33.8858 29.2518 33.8441C29.7179 33.7192 30.1075 33.4203 30.3488 33.0024C30.5901 32.5845 30.6542 32.0976 30.5292 31.6314L30.1208 30.1074C29.9959 29.6413 29.697 29.2517 29.2791 29.0104C28.8613 28.7691 28.3745 28.705 27.9082 28.8299C27.442 28.9548 27.0524 29.2538 26.8112 29.6717ZM27.7245 30.199C27.825 30.0251 27.9871 29.9007 28.1811 29.8487C28.246 29.8314 28.3113 29.823 28.3755 29.823C28.7075 29.823 29.0121 30.0448 29.102 30.3804L29.5105 31.9045C29.5624 32.0985 29.5357 32.3011 29.4354 32.475C29.3349 32.649 29.1728 32.7734 28.9788 32.8253C28.5778 32.9328 28.1652 32.6941 28.0578 32.2937L27.6494 30.7697C27.5974 30.5756 27.6241 30.3729 27.7245 30.199Z" fill="#424153" stroke="#424153" stroke-width="0.25"/>
<path d="M41.9881 28.8298C41.522 28.7051 41.0351 28.769 40.6172 29.0103C40.1993 29.2516 39.9004 29.6412 39.7755 30.1073L39.367 31.6314C39.2421 32.0975 39.3062 32.5843 39.5474 33.0023C39.7888 33.4201 40.1784 33.7191 40.6445 33.844C40.8001 33.8857 40.9581 33.9063 41.115 33.9063C41.428 33.9063 41.737 33.8242 42.0153 33.6635C42.4333 33.4222 42.7322 33.0326 42.8571 32.5665L43.2655 31.0424C43.3904 30.5763 43.3263 30.0895 43.0851 29.6716C42.8438 29.2537 42.4542 28.9547 41.9881 28.8298ZM42.2468 30.7695L41.8384 32.2935C41.7311 32.6939 41.3179 32.9327 40.9175 32.8251C40.7234 32.7732 40.5613 32.6487 40.4609 32.4748C40.3605 32.3009 40.3337 32.0983 40.3858 31.9043L40.7942 30.3802C40.8842 30.0447 41.1887 29.8229 41.5207 29.8229C41.5849 29.8229 41.6502 29.8312 41.7151 29.8486C41.9092 29.9006 42.0712 30.025 42.1717 30.1989C42.2721 30.3729 42.2988 30.5755 42.2468 30.7695Z" fill="#424153" stroke="#424153" stroke-width="0.25"/>
<path d="M30.6484 27.3115V28.8893C30.6484 29.8854 31.4589 30.6959 32.455 30.6959C33.4512 30.6959 34.2616 29.8855 34.2616 28.8893V27.3115C34.2616 26.3153 33.4512 25.5049 32.455 25.5049C31.4589 25.5049 30.6484 26.3154 30.6484 27.3115ZM33.2069 27.3115V28.8893C33.2069 29.3039 32.8695 29.6412 32.455 29.6412C32.0404 29.6412 31.7031 29.3039 31.7031 28.8893V27.3115C31.7031 26.8969 32.0404 26.5596 32.455 26.5596C32.8696 26.5596 33.2069 26.8969 33.2069 27.3115Z" fill="#424153" stroke="#424153" stroke-width="0.25"/>
<path d="M35.6328 27.3115V28.8893C35.6328 29.8854 36.4432 30.6959 37.4394 30.6959C38.4355 30.6959 39.246 29.8855 39.246 28.8893V27.3115C39.246 26.3153 38.4355 25.5049 37.4394 25.5049C36.4433 25.5049 35.6328 26.3154 35.6328 27.3115ZM38.1913 27.3115V28.8893C38.1913 29.3039 37.8541 29.6412 37.4395 29.6412C37.0249 29.6412 36.6876 29.3039 36.6876 28.8893V27.3115C36.6876 26.8969 37.0249 26.5596 37.4395 26.5596C37.8541 26.5596 38.1913 26.8969 38.1913 27.3115Z" fill="#424153" stroke="#424153" stroke-width="0.25"/>
<path d="M22.9932 41.306L22.873 41.4263L22.7528 41.306C22.4156 40.9689 21.9672 40.7832 21.4904 40.7832C21.0135 40.7832 20.5652 40.9689 20.228 41.3061C19.8908 41.6433 19.7051 42.0916 19.7051 42.5686C19.7051 43.0454 19.8908 43.4938 20.228 43.831L22.261 45.864C22.4298 46.0327 22.6514 46.117 22.873 46.117C23.0946 46.117 23.3163 46.0326 23.4851 45.8639L25.518 43.831C25.8552 43.4938 26.0409 43.0454 26.0409 42.5686C26.0409 42.0917 25.8552 41.6433 25.518 41.3061C24.822 40.61 23.6893 40.6101 22.9932 41.306ZM24.7722 43.0852L22.873 44.9844L20.9738 43.0852C20.6889 42.8003 20.6889 42.3368 20.9738 42.0519C21.1117 41.9139 21.2952 41.8379 21.4904 41.8379C21.6856 41.8379 21.8691 41.9139 22.007 42.0519L22.5001 42.545C22.7062 42.7509 23.04 42.7509 23.2459 42.545L23.739 42.0519C24.0239 41.7672 24.4873 41.767 24.7722 42.0519C25.0571 42.3367 25.0571 42.8003 24.7722 43.0852Z" fill="#424153" stroke="#424153" stroke-width="0.25"/>
<path d="M39.4453 44.519C39.4453 44.8103 39.6814 45.0464 39.9727 45.0464H43.355C43.6463 45.0464 43.8824 44.8103 43.8824 44.519C43.8824 44.2278 43.6463 43.9917 43.355 43.9917H39.9727C39.6814 43.9917 39.4453 44.2278 39.4453 44.519Z" fill="#424153" stroke="#424153" stroke-width="0.25"/>
<path d="M45.4099 48C46.0802 48 46.7062 47.7349 47.1726 47.2536C47.6391 46.7723 47.8843 46.1383 47.8633 45.4685L47.1661 23.2233C47.1563 22.911 47.0842 22.609 46.9515 22.3259L44.9583 18.0687C44.8824 17.9065 44.8423 17.7261 44.8423 17.547V13.6837C44.8423 12.7553 44.087 12 43.1586 12H26.7375C25.8091 12 25.0538 12.7553 25.0538 13.6837V17.547C25.0538 17.7261 25.0137 17.9065 24.9378 18.0687L22.9444 22.3259C22.8119 22.609 22.7397 22.9109 22.7299 23.2232L22.6039 27.2465C22.5947 27.5376 22.8233 27.781 23.1144 27.7901C23.1201 27.7903 23.1257 27.7904 23.1312 27.7904C23.4149 27.7904 23.6491 27.565 23.658 27.2795L23.7841 23.2563C23.7893 23.0881 23.8282 22.9255 23.8996 22.7731L25.8929 18.5159C26.0339 18.2147 26.1085 17.8797 26.1085 17.547V13.6837C26.1085 13.3369 26.3907 13.0547 26.7375 13.0547H43.1586C43.5055 13.0547 43.7876 13.3369 43.7876 13.6837V17.547C43.7876 17.8797 43.8622 18.2148 44.0032 18.5159L45.9964 22.7731C46.0679 22.9256 46.1067 23.0881 46.112 23.2563L46.8092 45.5016C46.8212 45.8837 46.6813 46.2452 46.4153 46.5196C46.1493 46.7941 45.7922 46.9453 45.4099 46.9453H33.5221C33.6117 46.692 33.6367 46.4173 33.5891 46.1455L32.7236 41.1942C33.3311 41.193 33.928 41.0444 34.4616 40.7595C34.7662 40.5968 35.13 40.5969 35.4345 40.7595C36.0298 41.0775 36.7039 41.2261 37.3839 41.1889C39.2998 41.0848 40.8373 39.4994 40.8843 37.5796C40.9227 36.0107 39.964 34.581 38.4986 34.0222C38.4 33.9845 38.3187 33.9096 38.2699 33.8111C37.6388 32.5399 36.3659 31.7503 34.948 31.7503C33.5301 31.7503 32.2572 32.5399 31.6261 33.8111C31.5773 33.9096 31.496 33.9845 31.3974 34.0222C30.4011 34.4021 29.6288 35.188 29.2561 36.1596C28.7067 35.8395 28.069 35.6552 27.3886 35.6552C26.6932 35.6552 26.0279 35.8436 25.4441 36.2031C24.8888 35.8897 24.2651 35.7255 23.62 35.7255C23.5442 35.7255 23.4686 35.7285 23.3931 35.7331L23.5861 29.5778C23.5952 29.2868 23.3666 29.0433 23.0755 29.0343C23.0699 29.034 23.0643 29.034 23.0587 29.034C22.7751 29.034 22.5409 29.2593 22.5319 29.5448L22.3464 35.465C21.6156 35.0368 20.7798 34.8067 19.9226 34.8067C19.7774 34.8067 19.6304 34.8133 19.486 34.8263C19.1959 34.8525 18.982 35.1089 19.0082 35.3989C19.0343 35.689 19.2916 35.9027 19.5807 35.8767C19.6938 35.8665 19.8088 35.8613 19.9226 35.8613C20.8242 35.8613 21.6958 36.1874 22.3767 36.7795C22.5122 36.8972 22.6982 36.938 22.8705 36.8877C23.1148 36.8163 23.3669 36.7802 23.62 36.7802C24.1718 36.7802 24.7017 36.9479 25.1525 37.265C25.3406 37.3974 25.5924 37.3927 25.7753 37.2534C26.2426 36.8978 26.8005 36.7099 27.3886 36.7099C28.6968 36.7099 29.7874 37.6567 30.0128 38.9008H16.247C16.4201 37.989 16.9253 37.1719 17.6833 36.6047C17.9166 36.4303 17.9642 36.0998 17.7898 35.8666C17.6153 35.6334 17.2849 35.5858 17.0516 35.7602C16.0258 36.5276 15.3603 37.6526 15.177 38.9008H14.7524C13.9821 38.9008 13.3268 39.4515 13.1941 40.2104L12.1566 46.1455C12.0759 46.6069 12.2025 47.0771 12.5038 47.4357C12.8051 47.7943 13.2466 47.9999 13.715 47.9999H45.4099V48ZM31.7732 35.0077C32.1205 34.8753 32.4037 34.6169 32.5709 34.2801C33.0226 33.3702 33.9335 32.805 34.9481 32.805C35.9627 32.805 36.8735 33.3702 37.3253 34.2801C37.4925 34.6169 37.7758 34.8753 38.1229 35.0077C39.1715 35.4075 39.8575 36.4308 39.8299 37.5538C39.7963 38.9272 38.6969 40.0614 37.3267 40.1358C36.8393 40.1623 36.3567 40.0563 35.9313 39.8292C35.3157 39.5003 34.5804 39.5003 33.9648 39.8292C33.5394 40.0563 33.0567 40.1623 32.5693 40.1358C32.5578 40.1352 32.5465 40.1355 32.5351 40.1356C32.3798 39.4442 31.7866 38.9429 31.0798 38.9047C30.9808 38.127 30.6418 37.4232 30.1383 36.8713C30.3396 36.0244 30.949 35.322 31.7732 35.0077ZM13.3113 46.7572C13.2094 46.6359 13.1683 46.4832 13.1956 46.3271L14.2331 40.392C14.2773 40.139 14.4958 39.9554 14.7526 39.9554H30.9934C31.2501 39.9554 31.4686 40.139 31.5128 40.392L32.5504 46.3271C32.5776 46.4832 32.5365 46.6359 32.4346 46.7572C32.3327 46.8785 32.1894 46.9453 32.031 46.9453H13.715C13.5566 46.9453 13.4132 46.8785 13.3113 46.7572Z" fill="#424153" stroke="#424153" stroke-width="0.25"/>
<path d="M41.8106 14.9302H38.5898C38.2985 14.9302 38.0625 15.1663 38.0625 15.4575C38.0625 15.7488 38.2985 15.9849 38.5898 15.9849H41.8106C42.1019 15.9849 42.3379 15.7488 42.3379 15.4575C42.3379 15.1663 42.1019 14.9302 41.8106 14.9302Z" fill="#424153" stroke="#424153" stroke-width="0.25"/>
<path d="M36.291 14.9302H28.0858C27.7944 14.9302 27.5584 15.1663 27.5584 15.4575C27.5584 15.7488 27.7944 15.9849 28.0858 15.9849H36.291C36.5823 15.9849 36.8184 15.7488 36.8184 15.4575C36.8184 15.1663 36.5822 14.9302 36.291 14.9302Z" fill="#424153" stroke="#424153" stroke-width="0.25"/>
</svg>
