<svg width="60" height="60" viewBox="0 0 60 60" fill="none" xmlns="http://www.w3.org/2000/svg">
<rect width="60" height="60" rx="30" fill="#DCF9CA"/>
<mask id="mask0_4526_5613" style="mask-type:luminance" maskUnits="userSpaceOnUse" x="12" y="12" width="36" height="36">
<path d="M12 12H48V48H12V12Z" fill="white"/>
</mask>
<g mask="url(#mask0_4526_5613)">
<path d="M26.9432 24.6862C26.8328 24.3709 26.6831 24.0636 26.4928 23.7709C25.2138 21.8037 22.5853 21.2437 20.622 22.5201C19.5781 23.1989 18.9332 24.26 18.75 25.4006" stroke="#424153" stroke-width="1.3" stroke-miterlimit="10" stroke-linecap="round" stroke-linejoin="round"/>
<path d="M17.8193 25.9788C16.7097 25.6934 15.4899 25.8552 14.4547 26.5282C12.4914 27.8048 11.9366 30.4343 13.2156 32.4016C13.3756 32.6475 13.5565 32.8714 13.7546 33.0725" stroke="#424153" stroke-width="1.3" stroke-miterlimit="10" stroke-linecap="round" stroke-linejoin="round"/>
<path d="M30.7541 36.3309L28.2981 32.5536C30.3072 31.2475 30.8747 28.5568 29.566 26.5438C28.2572 24.5309 25.5677 23.9578 23.5587 25.264C23.3427 25.4044 23.1444 25.5617 22.9623 25.7316C21.563 24.8034 19.6916 24.734 18.1966 25.706C16.7037 26.6767 16.0076 28.4119 16.2853 30.0655C16.0672 30.1604 15.8538 30.2735 15.6479 30.4074C13.639 31.7135 13.0713 34.4042 14.3801 36.4172C15.133 37.5752 16.3429 38.2565 17.6173 38.3774" stroke="#424153" stroke-width="1.3" stroke-miterlimit="10" stroke-linecap="round" stroke-linejoin="round"/>
<path d="M20.8984 29.8333L24.8513 35.9131" stroke="#424153" stroke-width="1.3" stroke-miterlimit="10" stroke-linecap="round" stroke-linejoin="round"/>
<path d="M19.4258 33.4054C21.8608 33.9242 24.247 32.3727 24.7609 29.9367" stroke="#424153" stroke-width="1.3" stroke-miterlimit="10" stroke-linecap="round" stroke-linejoin="round"/>
<path d="M24.8516 35.9131C25.4831 35.5024 25.9576 34.8501 26.1257 34.053" stroke="#424153" stroke-width="1.3" stroke-miterlimit="10" stroke-linecap="round" stroke-linejoin="round"/>
<path d="M44.3982 37.5327V27.2004C44.3982 26.1949 44.1904 25.2002 43.7877 24.2788L42.2544 20.7701C41.8517 19.8486 41.6439 18.854 41.6439 17.8484V15.4452H36.3051V17.8484C36.3051 18.854 36.0972 19.8486 35.6946 20.7701L34.1613 24.2788C33.7587 25.2002 33.5508 26.1949 33.5508 27.2004V35.5121" stroke="#424153" stroke-width="1.3" stroke-miterlimit="10" stroke-linecap="round" stroke-linejoin="round"/>
<path d="M41.5195 24.348L41.8584 25.1234C42.1463 25.7824 42.2923 26.4813 42.2923 27.2004" stroke="#424153" stroke-width="1.3" stroke-miterlimit="10" stroke-linecap="round" stroke-linejoin="round"/>
<path d="M38.8684 12.5274H35.8079C35.3801 12.5274 35.0332 12.8743 35.0332 13.3021V14.6706C35.0332 15.0985 35.3801 15.4453 35.8079 15.4453H42.1432C42.5711 15.4453 42.9178 15.0985 42.9178 14.6706V13.3021C42.9178 12.8743 42.5711 12.5274 42.1432 12.5274H41.6708" stroke="#424153" stroke-width="1.3" stroke-miterlimit="10" stroke-linecap="round" stroke-linejoin="round"/>
<path d="M42.257 20.77C41.8543 19.8486 41.6465 18.8539 41.6465 17.8483V15.4452H36.3077V17.8483C36.3077 18.8539 36.0999 19.8486 35.6972 20.77L35.0703 22.2046H42.8839L42.257 20.77Z" stroke="#424153" stroke-width="1.3" stroke-miterlimit="10" stroke-linecap="round" stroke-linejoin="round"/>
<path d="M38.5781 41.2173C39.209 40.5289 39.9586 39.5866 39.8579 38.7792L39.8671 38.7774V35.7729" stroke="#424153" stroke-width="1.3" stroke-miterlimit="10" stroke-linecap="round" stroke-linejoin="round"/>
<path d="M17.4004 39.171V42.4099C17.3715 42.6506 17.372 42.8946 17.4004 43.1376C17.4954 43.95 17.8966 44.7511 18.5134 45.3785C19.6012 46.4849 21.2473 47.1019 22.9118 47.3426C26.6992 47.8901 30.5705 46.6442 33.7691 44.8219C34.0467 44.6637 34.3212 44.502 34.5914 44.3372" stroke="#424153" stroke-width="1.3" stroke-miterlimit="10" stroke-linecap="round" stroke-linejoin="round"/>
<path d="M25.275 44.2275C28.2766 44.1122 31.2322 43.0314 33.7657 41.5881C35.6523 40.5133 37.3948 39.2775 38.5804 37.9836C39.432 37.0542 40.5001 35.6624 39.4005 34.7641C38.0253 33.6407 35.7174 34.4982 34.3401 35.1395C33.4444 35.5567 32.5639 36.0172 31.5891 36.273C30.0154 36.686 28.3215 36.5342 26.6957 36.3152C25.0698 36.0961 23.4262 35.8125 21.7912 35.9739C20.1562 36.1353 18.4892 36.834 17.7559 38.0968C17.004 39.3919 17.4224 41.0384 18.5101 42.1447C19.5043 43.1558 20.9651 43.7573 22.48 44.0371" stroke="#424153" stroke-width="1.3" stroke-miterlimit="10" stroke-linecap="round" stroke-linejoin="round"/>
<path d="M24.873 39.884C24.873 40.4956 23.9859 40.9915 22.8916 40.9915C21.7972 40.9915 20.9102 40.4956 20.9102 39.884C20.9102 39.2724 21.7972 38.7765 22.8916 38.7765C23.9859 38.7765 24.873 39.2724 24.873 39.884Z" stroke="#424153" stroke-width="1.3" stroke-miterlimit="10" stroke-linecap="round" stroke-linejoin="round"/>
<path d="M41.3789 41.7128C41.5584 39.6349 42.8489 37.6609 44.4142 37.6609C46.1024 37.6609 47.4709 39.9568 47.4709 42.203C47.4709 44.449 46.1024 45.7646 44.4142 45.7646C43.8553 45.7646 43.3315 45.6204 42.8806 45.346" stroke="#424153" stroke-width="1.3" stroke-miterlimit="10" stroke-linecap="round" stroke-linejoin="round"/>
<path d="M39.179 41.3597C41.4252 41.3597 42.7409 42.7281 42.7409 44.4162C42.7409 46.1043 41.4252 47.4727 39.179 47.4727C36.9328 47.4727 34.6367 46.1043 34.6367 44.4162C34.6367 42.7281 36.9328 41.3597 39.179 41.3597Z" stroke="#424153" stroke-width="1.3" stroke-miterlimit="10" stroke-linecap="round" stroke-linejoin="round"/>
<path d="M40.168 43.1885C40.6792 43.4358 40.9704 43.8728 40.9704 44.4453" stroke="#424153" stroke-width="1.3" stroke-miterlimit="10" stroke-linecap="round" stroke-linejoin="round"/>
</g>
</svg>
