<svg width="60" height="60" viewBox="0 0 60 60" fill="none" xmlns="http://www.w3.org/2000/svg">
<rect width="60" height="60" rx="30" fill="#F7CABD"/>
<path d="M11.998 31.1999C12.0016 34.1807 14.4171 36.5963 17.3979 36.5999H23.3979V42.5999C23.4016 45.5807 25.8171 47.9962 28.7979 47.9998H31.1979C34.1787 47.9962 36.5942 45.5807 36.5979 42.5999V39.0665C36.7944 39.0201 36.9959 38.9978 37.1979 38.9999C37.7357 38.9891 38.2606 39.1653 38.6829 39.4985C39.3089 39.9652 40.0717 40.2118 40.8524 40.1999C42.0247 40.246 43.0981 39.5459 43.5284 38.4545C44.1095 36.8196 43.6938 34.9961 42.4616 33.7745C41.966 33.249 41.5368 32.6647 41.1836 32.0345C40.3904 30.7391 39.5709 29.3999 37.1979 29.3999C34.8249 29.3999 34.0053 30.7391 33.2121 32.0339C32.8589 32.6641 32.4297 33.2484 31.9341 33.7739C30.7019 34.9955 30.2863 36.819 30.8673 38.4539C31.2975 39.5455 32.3708 40.2459 33.5433 40.1999C34.1971 40.2156 34.8413 40.0411 35.3979 39.6977V42.5999C35.3952 44.9184 33.5164 46.7972 31.1979 46.7999H28.7979C26.4794 46.7972 24.6006 44.9184 24.5979 42.5999V36.5999C24.5979 35.9372 24.0607 35.3999 23.3979 35.3999H17.3979C15.0795 35.3973 13.2006 33.5184 13.198 31.1999V28.7999C13.2006 26.4814 15.0795 24.6026 17.3979 24.5999H23.3979C24.0607 24.5999 24.5979 24.0627 24.5979 23.4V17.4C24.6006 15.0815 26.4794 13.2026 28.7979 13.2H31.1979C33.5164 13.2026 35.3952 15.0815 35.3979 17.4V21.9936C34.8114 21.3031 33.9223 20.9462 33.0213 21.0396C32.1514 21.1884 31.4092 21.753 31.0335 22.5516C30.6044 23.4091 30.455 24.3796 30.6063 25.3265C30.7278 26.2779 31.1446 27.1672 31.7979 27.8693C32.3079 28.4339 33.0269 28.7648 33.7875 28.7849C33.9023 28.7848 34.017 28.7766 34.1307 28.7603C35.0006 28.6115 35.7428 28.0469 36.1185 27.2483C36.442 26.6145 36.6065 25.9115 36.5979 25.1999V17.4C36.5942 14.4192 34.1787 12.0036 31.1979 12H28.7979C25.8171 12.0036 23.4016 14.4192 23.3979 17.4V23.4H17.3979C14.4171 23.4036 12.0016 25.8191 11.998 28.7999L11.998 31.1999ZM33.5433 38.9999C32.8582 39.0455 32.2233 38.6392 31.9779 37.9979C31.593 36.8123 31.9026 35.5111 32.7801 34.6259C33.3451 34.0337 33.8344 33.3737 34.2369 32.6609C34.9953 31.4195 35.4975 30.5999 37.1979 30.5999C38.8983 30.5999 39.4005 31.4195 40.16 32.6609C40.5625 33.3737 41.0518 34.0337 41.6168 34.6259C42.4939 35.5114 42.803 36.8126 42.4178 37.9979C42.1724 38.6392 41.5376 39.0455 40.8524 38.9999C40.3053 39.0123 39.771 38.8339 39.3411 38.4953C38.0627 37.5681 36.333 37.5681 35.0547 38.4953C34.6248 38.8339 34.0904 39.0123 33.5433 38.9999ZM35.0571 26.6879C34.8812 27.162 34.4601 27.5019 33.9596 27.5738C33.4591 27.6458 32.9594 27.4382 32.6571 27.0329C32.1803 26.5128 31.8782 25.8566 31.7931 25.1561C31.6769 24.4601 31.7818 23.7452 32.0931 23.112C32.2939 22.657 32.7027 22.3274 33.1899 22.2276C34.1583 22.0902 35.1477 23.1954 35.3559 24.6437C35.3819 24.8246 35.3954 25.007 35.3961 25.1897V25.1999C35.4058 25.7161 35.2894 26.2269 35.0571 26.6879Z" fill="#424153" stroke="#424153" stroke-width="0.25"/>
<path d="M27.6184 27.402C26.4274 27.9792 26.0458 29.6598 26.767 31.149C27.2201 32.2035 28.2243 32.9166 29.3692 32.997C29.6691 32.9984 29.9655 32.9312 30.2356 32.8008C31.4266 32.2236 31.8082 30.5424 31.0864 29.0544C30.3646 27.5664 28.8094 26.8248 27.6184 27.402ZM29.7124 31.722C29.1256 32.0064 28.2724 31.5036 27.847 30.6258C27.4216 29.748 27.5566 28.7658 28.1416 28.4826C28.2539 28.4287 28.377 28.4014 28.5016 28.4028C29.1787 28.4956 29.7541 28.9445 30.0088 29.5788C30.4324 30.456 30.298 31.4406 29.7124 31.722Z" fill="#424153" stroke="#424153" stroke-width="0.25"/>
<path d="M40.2649 28.7604C40.3786 28.7766 40.4933 28.7848 40.6081 28.785C41.3686 28.7645 42.0876 28.4337 42.5977 27.8694C43.2511 27.1672 43.6678 26.2779 43.7893 25.3266C43.9406 24.3797 43.7912 23.4091 43.3621 22.5516C42.9865 21.753 42.2442 21.1884 41.3743 21.0396C39.7393 20.8044 38.1559 22.3446 37.8499 24.4734C37.6992 25.4203 37.8486 26.3906 38.2771 27.2484C38.6528 28.0469 39.3951 28.6115 40.2649 28.7604ZM39.0379 24.6438C39.2347 23.2776 40.1275 22.2156 41.0389 22.2156C41.0941 22.2157 41.1493 22.2197 41.2039 22.2276C41.6911 22.3274 42.0999 22.657 42.3007 23.112C42.612 23.7453 42.7169 24.4602 42.6007 25.1562C42.5156 25.8566 42.2135 26.5128 41.7367 27.033C41.4344 27.4383 40.9347 27.6458 40.4342 27.5739C39.9337 27.5019 39.5126 27.162 39.3367 26.688C39.0261 26.0545 38.9217 25.3397 39.0379 24.6438Z" fill="#424153" stroke="#424153" stroke-width="0.25"/>
<path d="M44.1569 32.8008C44.427 32.9312 44.7233 32.9984 45.0233 32.997C46.1683 32.9163 47.1724 32.203 47.6255 31.1484C48.3455 29.6598 47.9651 27.9792 46.7741 27.402C45.5831 26.8248 44.0279 27.5664 43.3061 29.0544C42.5843 30.5424 42.9683 32.2236 44.1569 32.8008ZM45.8969 28.4022C46.0214 28.4008 46.1446 28.4281 46.2569 28.482C46.8419 28.7652 46.9769 29.7474 46.5515 30.6252C46.1261 31.503 45.2711 32.0052 44.6867 31.7214C44.1023 31.4376 43.9667 30.456 44.3921 29.5782C44.6464 28.9446 45.2206 28.4958 45.8969 28.4022Z" fill="#424153" stroke="#424153" stroke-width="0.25"/>
<path d="M15.5984 28.8C15.5984 27.8059 16.4042 27 17.3983 27C17.7297 27 17.9983 26.7314 17.9983 26.4C17.9983 26.0687 17.7297 25.8 17.3983 25.8C15.7423 25.802 14.4003 27.144 14.3984 28.8C14.3984 29.1314 14.667 29.4 14.9984 29.4C15.3297 29.4 15.5984 29.1314 15.5984 28.8Z" fill="#424153" stroke="#424153" stroke-width="0.25"/>
<path d="M20.3978 27.0004C20.7294 27.0004 20.9981 26.7317 20.9981 26.4001C20.9981 26.0686 20.7294 25.7998 20.3978 25.7998H19.7975C19.466 25.7998 19.1972 26.0686 19.1972 26.4001C19.1972 26.7317 19.466 27.0004 19.7975 27.0004H20.3978Z" fill="#424153" stroke="#424153" stroke-width="0.25"/>
</svg>
